{"title":"Hum Se Hai Muqabla (1995) DVDRip XviD E-Subs Hindi Movie","uid":8205951,"size":1556647796,"categoryP":"video","categoryS":"movies","magnet":"?xt=urn:btih:ee2c906c3b0a89459421704ef9ae92de7f81af91&amp;dn=Hum+Se+Hai+Muqabla+%281995%29+DVDRip+XviD+E-Subs+Hindi+Movie&amp;tr=udp%3A%2F%2Ftracker.openbittorrent.com%3A80&amp;tr=udp%3A%2F%2Fopen.demonii.com%3A1337&amp;tr=udp%3A%2F%2Ftracker.coppersurfer.tk%3A6969&amp;tr=udp%3A%2F%2Fexodus.desync.com%3A6969","seeders":0,"leechers":1,"uploader":"shaan666","files":-1,"time":1362126914,"description":"[B]Hum Se Hai Muqabla (1995)[/B]\n\n &lt;a href=&quot;\nhttp://www.shotpix.com/images/09769179230758387977.jpg&quot; rel=&quot;nofollow&quot; target=&quot;_NEW&quot;&gt;\nhttp://www.shotpix.com/images/09769179230758387977.jpg&lt;/a&gt;\n\n\n\n[B]INFO[/B]\n\n[CODE]The movie is Hindi dub of &quot;Kadhlan&quot; 1994 - Telgu, signature steps of Prabhu Deva and Music from A.R. Rehman brought lot of popularity to the film all over. The movie won &quot;Best Special effects&quot; award ... chk out &quot;Muqabla&quot; song. Don't miss &quot;Urvashi&quot; &amp; &quot;Gopala&quot; songs also.[/CODE]\n\n[CODE]Format : AVI\nFormat/Info : Audio Video Interleave\nFile size : 1.45 GiB\nDuration : 2h 35mn\nOverall bit rate : 1 336 Kbps\nWriting application : VirtualDubMod 1.5.10.2 (build 2542/release)\nWriting library : VirtualDubMod build 2542/release\n\nVideo\nID : 0\nFormat : MPEG-4 Visual\nFormat profile : Advanced Simple@L5\nFormat settings, BVOP : 2\nFormat settings, QPel : Yes\nFormat settings, GMC : No warppoints\nFormat settings, Matrix : Custom\nCodec ID : XVID\nCodec ID/Hint : XviD\nDuration : 2h 35mn\nBit rate : 1 103 Kbps\nWidth : 688 pixels\nHeight : 352 pixels\nDisplay aspect ratio : 1.955\nFrame rate : 23.976 fps\nColor space : YUV\nChroma subsampling : 4:2:0\nBit depth : 8 bits\nScan type : Progressive\nCompression mode : Lossy\nBits/(Pixel*Frame) : 0.190\nStream size : 1.20 GiB (83%)\nWriting library : XviD 1.2.1 (UTC 2008-12-04)\n\nAudio\nID : 1\nFormat : AC-3\nFormat/Info : Audio Coding 3\nMode extension : CM (complete main)\nCodec ID : 2000\nDuration : 2h 35mn\nBit rate mode : Constant\nBit rate : 224 Kbps\nChannel(s) : 6 channels\nChannel positions : Front: L C R, Side: L R, LFE\nSampling rate : 48.0 KHz\nBit depth : 16 bits\nCompression mode : Lossy\nStream size : 249 MiB (17%)\nAlignment : Split accross interleaves\nInterleave, duration : 42 ms (1.00 video frame)\nInterleave, preload duration : 500 ms[/CODE]\n\n\n\n[B]Ripper -=Rangeela=-\nSource DVD9 by DB007(Thanx!)\nSubtitles English[/B]\n\n\n\n[B]SCREEN SHOTS[/B]\n &lt;a href=&quot;\nhttp://www.shotpix.com/images/92524695821896955808.png&quot; rel=&quot;nofollow&quot; target=&quot;_NEW&quot;&gt;\nhttp://www.shotpix.com/images/92524695821896955808.png&lt;/a&gt;\n &lt;a href=&quot;\nhttp://www.shotpix.com/images/44504186933854074009.png&quot; rel=&quot;nofollow&quot; target=&quot;_NEW&quot;&gt;\nhttp://www.shotpix.com/images/44504186933854074009.png&lt;/a&gt;\n &lt;a href=&quot;\nhttp://www.shotpix.com/images/10952560863317149289.png&quot; rel=&quot;nofollow&quot; target=&quot;_NEW&quot;&gt;\nhttp://www.shotpix.com/images/10952560863317149289.png&lt;/a&gt;\n &lt;a href=&quot;\nhttp://www.shotpix.com/images/63929098408972005694.png&quot; rel=&quot;nofollow&quot; target=&quot;_NEW&quot;&gt;\nhttp://www.shotpix.com/images/63929098408972005694.png&lt;/a&gt;\n &lt;a href=&quot;\nhttp://www.shotpix.com/images/60308465033559529216.png&quot; rel=&quot;nofollow&quot; target=&quot;_NEW&quot;&gt;\nhttp://www.shotpix.com/images/60308465033559529216.png&lt;/a&gt;\n &lt;a href=&quot;\nhttp://www.shotpix.com/images/30804190044996064289.png&quot; rel=&quot;nofollow&quot; target=&quot;_NEW&quot;&gt;\nhttp://www.shotpix.com/images/30804190044996064289.png&lt;/a&gt;\n &lt;a href=&quot;\nhttp://www.shotpix.com/images/69913033483619843630.png&quot; rel=&quot;nofollow&quot; target=&quot;_NEW&quot;&gt;\nhttp://www.shotpix.com/images/69913033483619843630.png&lt;/a&gt;\n &lt;a href=&quot;\nhttp://www.shotpix.com/images/02734640473717346812.png&quot; rel=&quot;nofollow&quot; target=&quot;_NEW&quot;&gt;\nhttp://www.shotpix.com/images/02734640473717346812.png&lt;/a&gt;\n &lt;a href=&quot;\nhttp://www.shotpix.com/images/03783032369750206409.png&quot; rel=&quot;nofollow&quot; target=&quot;_NEW&quot;&gt;\nhttp://www.shotpix.com/images/03783032369750206409.png&lt;/a&gt;\n &lt;a href=&quot;\nhttp://www.shotpix.com/images/96551968963484860775.png&quot; rel=&quot;nofollow&quot; target=&quot;_NEW&quot;&gt;\nhttp://www.shotpix.com/images/96551968963484860775.png&lt;/a&gt;\n &lt;a href=&quot;\nhttp://www.shotpix.com/images/21708509006127764065.jpg&quot; rel=&quot;nofollow&quot; target=&quot;_NEW&quot;&gt;\nhttp://www.shotpix.com/images/21708509006127764065.jpg&lt;/a&gt;","torrent":{"xt":"urn:btih:ee2c906c3b0a89459421704ef9ae92de7f81af91","amp;dn":"Hum+Se+Hai+Muqabla+%281995%29+DVDRip+XviD+E-Subs+Hindi+Movie","amp;tr":["udp%3A%2F%2Ftracker.openbittorrent.com%3A80","udp%3A%2F%2Fopen.demonii.com%3A1337","udp%3A%2F%2Ftracker.coppersurfer.tk%3A6969","udp%3A%2F%2Fexodus.desync.com%3A6969"],"infoHash":"ee2c906c3b0a89459421704ef9ae92de7f81af91","infoHashBuffer":{"type":"Buffer","data":[238,44,144,108,59,10,137,69,148,33,112,78,249,174,146,222,127,129,175,145]},"announce":[],"urlList":[]}}